<?xml version="1.0" encoding="utf-8"?>
<!-- Generator: Adobe Illustrator 25.2.3, SVG Export Plug-In . SVG Version: 6.00 Build 0)  -->
<svg version="1.1" id="레이어_1" xmlns="http://www.w3.org/2000/svg" xmlns:xlink="http://www.w3.org/1999/xlink" x="0px"
	 y="0px" viewBox="0 0 486.5 32" style="enable-background:new 0 0 486.5 32;" xml:space="preserve">
<style type="text/css">
	.st0{fill:#FFFFFF;}
</style>
<g>
	<path class="st0" d="M149.8,31.1c-4.2,0-7.8-1.3-10.6-4c-2.8-2.6-4.2-6.1-4.2-10.3c0-5,1.4-8.8,4.1-11.5c2.8-2.7,6.6-4.2,11.7-4.7
		c3.6,0.2,6.5,0.7,8.7,1.7l0.2,4.9h-0.6c-2.5-2.4-5.3-3.6-8.6-3.6c-2.8,0-5.1,1-6.8,3.1c-1.7,2-2.6,4.9-2.6,8.7s0.9,6.9,2.7,9.2
		s4.3,3.5,7.5,3.5h3.3V17.7l-5.1,0.4v-2.9h11.3v0.6c-0.7,1.4-1.1,2.5-1.1,3.2v10.5C157.3,30.6,154,31.1,149.8,31.1z"/>
	<path class="st0" d="M165.7,30.1c0.9-1.3,1.3-2.3,1.3-2.9V4.7c0-0.6-0.4-1.5-1.3-2.9V1.3H183v3.4h-0.6c-1.5-0.6-2.6-0.9-3.3-0.9
		h-6.8v10.6l7.9-0.5V17l-7.9-0.4v11.7l6.3-0.2c2-0.1,3.6-0.5,4.8-1.3L184,27l-1,3.6h-17.4L165.7,30.1L165.7,30.1z"/>
	<path class="st0" d="M187.9,30.1c0.8-1.3,1.1-2.2,1.1-2.9V4.3c0-0.6-0.4-1.4-1.3-2.5V1.3h5.1l15.1,20.8h0.2V4.7
		c0-0.7-0.4-1.6-1.1-2.9V1.3h5.4v0.5c-0.7,1.2-1.1,2.1-1.1,2.9v26h-3.9c-0.3-0.7-0.7-1.3-1.1-1.9L192.4,9.9h-0.2v17.4
		c0,0.7,0.4,1.6,1.1,2.9v0.5h-5.4L187.9,30.1L187.9,30.1z"/>
	<path class="st0" d="M222.9,30.1c0.9-1.3,1.3-2.3,1.3-2.9V3.7h-4.9c-0.5,0-1.5,0.3-2.9,1h-0.6V1.3h21.9v3.4h-0.6
		c-1.4-0.6-2.4-1-2.9-1h-4.9v23.5c0,0.6,0.4,1.5,1.3,2.9v0.5h-7.9L222.9,30.1L222.9,30.1z"/>
	<path class="st0" d="M241.5,30.1c0.9-1.3,1.3-2.3,1.3-2.9V4.7c0-0.6-0.4-1.5-1.3-2.9V1.3h8v0.5c-0.9,1.3-1.3,2.3-1.3,2.9v23.6
		l6.1-0.2c1.2,0,2.2-0.1,2.9-0.3s1.3-0.5,2-1l0.6,0.2l-1,3.6h-17.2L241.5,30.1L241.5,30.1z"/>
	<path class="st0" d="M263.1,30.1c0.9-1.3,1.3-2.3,1.3-2.9V4.7c0-0.6-0.4-1.5-1.3-2.9V1.3h17.3v3.4h-0.6c-1.5-0.6-2.6-0.9-3.3-0.9
		h-6.8v10.6l7.9-0.5V17l-7.9-0.4v11.7l6.3-0.2c2-0.1,3.6-0.5,4.8-1.3l0.6,0.2l-1,3.6H263L263.1,30.1L263.1,30.1z"/>
	<path class="st0" d="M295.8,30.1c0.8-1.3,1.1-2.2,1.1-2.9V4.7c0-0.6-0.4-1.5-1.3-2.9V1.3h6.1l9.4,22.5h0.2l9.8-22.5h6.1v0.5
		c-0.9,1.3-1.3,2.3-1.3,2.9v22.5c0,0.6,0.4,1.5,1.3,2.9v0.5h-7.8v-0.5c0.9-1.3,1.3-2.3,1.3-2.9v-17h-0.2l-9,20.5h-2.4l-8.9-20.5H300
		v17c0,0.7,0.4,1.6,1.1,2.9v0.5h-5.4L295.8,30.1L295.8,30.1z"/>
	<path class="st0" d="M346.1,31.5c-1.7,0-3.1-0.1-4.3-0.3c-3.1-1-5.6-2.9-7.3-5.5s-2.6-5.8-2.6-9.3c0-4.8,1.4-8.7,4.3-11.5
		C339.1,2,343,0.6,348,0.6c1.5,0,2.9,0.1,4.3,0.3c2.9,0.8,5.2,2.6,7,5.3s2.8,5.7,2.8,9.1c0,5-1.4,8.9-4.2,11.8
		C355,30,351.1,31.5,346.1,31.5z M337.8,15.3c0,3.8,0.9,7,2.7,9.6s4.3,3.9,7.5,3.9c2.8,0,4.8-1,6.1-3.1c1.3-2,1.9-4.7,1.9-7.9
		c0-2.6-0.3-5-1-7.1s-1.8-3.9-3.3-5.3c-1.6-1.4-3.5-2.1-5.8-2.1C340.5,3.2,337.8,7.2,337.8,15.3z"/>
	<path class="st0" d="M366.5,30.1c0.8-1.3,1.1-2.2,1.1-2.9V4.3c0-0.6-0.4-1.4-1.3-2.5V1.3h5.1l15.1,20.8h0.2V4.7
		c0-0.7-0.4-1.6-1.1-2.9V1.3h5.4v0.5c-0.7,1.2-1,2.1-1,2.9v26h-4c-0.3-0.7-0.7-1.3-1.1-1.9L371,9.9h-0.2v17.4c0,0.7,0.4,1.6,1.1,2.9
		v0.5h-5.4V30.1L366.5,30.1z"/>
	<path class="st0" d="M402.6,31.1c-2.2,0-4.4-0.4-6.5-1l-0.6-5.3h0.7c2,2.6,4.3,3.9,6.9,3.9c1.4,0,2.5-0.4,3.4-1.2s1.3-1.8,1.3-3.1
		c0-1-0.4-1.9-1.3-2.9s-2.3-2.2-4.4-3.6c-2.2-1.5-3.8-2.9-4.8-4.2s-1.5-2.9-1.5-4.6c0-2.6,0.9-4.6,2.7-6s4.2-2.1,7.2-2.1
		c0.8,0,1.9,0.1,3.1,0.3s2.2,0.4,2.8,0.6l0.3,4.4h-0.7c-1.2-1.8-3.2-2.7-5.9-2.7c-1.4,0-2.5,0.3-3.3,1s-1.3,1.6-1.3,2.7
		s0.4,2.1,1.3,3.1s2.2,2.2,4.2,3.6c2.6,1.9,4.4,3.4,5.3,4.7s1.4,2.8,1.4,4.5c0,2.7-1,4.6-2.9,6C407.9,30.5,405.5,31.1,402.6,31.1z"
		/>
	<path class="st0" d="M422.4,30.1c0.9-1.3,1.3-2.3,1.3-2.9V3.7h-4.9c-0.5,0-1.5,0.3-2.9,1h-0.5V1.3h21.9v3.4h-0.5
		c-1.4-0.6-2.4-1-2.9-1H429v23.5c0,0.6,0.4,1.5,1.3,2.9v0.5h-7.9V30.1L422.4,30.1z"/>
	<path class="st0" d="M441,30.1c0.9-1.3,1.3-2.3,1.3-2.9V4.7c0-0.6-0.4-1.5-1.3-2.9V1.3h17.3v3.4h-0.5c-1.5-0.6-2.6-0.9-3.3-0.9
		h-6.8v10.6l7.9-0.5V17l-7.9-0.4v11.7l6.3-0.2c2-0.1,3.6-0.5,4.8-1.3l0.6,0.2l-1,3.6H441V30.1L441,30.1z"/>
	<path class="st0" d="M483.9,28c0.5,0.9,1.2,1.6,2.1,2.1v0.5h-6.6c-0.1-0.5-0.4-1.2-0.8-2.1l-6.1-11l-2.9-0.1v9.7
		c0,0.6,0.4,1.5,1.3,2.9v0.5h-7.8V30c0.9-1.3,1.3-2.3,1.3-2.9V4.7c0-0.6-0.4-1.5-1.3-2.9V1.3h11.6c2.2,0,4.2,0.8,6,2.4
		c1.7,1.6,2.6,3.6,2.6,6c0,1.7-0.4,3.1-1.3,4.3s-2.2,2.3-4,3.4L483.9,28z M469.6,15.3l3-0.1c1.5-0.1,2.8-0.6,3.8-1.5
		c1-1,1.5-2.3,1.5-4.1c0-1.9-0.5-3.3-1.5-4.3s-2.3-1.5-4-1.5l-2.9-0.1L469.6,15.3L469.6,15.3z"/>
</g>
<g>
	<path class="st0" d="M16.3,31.7C7.1,31.7,0.4,25.2,0.4,16S7,0.3,16.2,0.3S32.1,6.7,32.1,16C32.2,25.4,25.6,31.7,16.3,31.7z
		 M16.3,1.2c-8.7,0-15,6.1-15,14.8s6.3,14.8,15,14.8s14.9-6,14.9-14.8C31.2,7.3,25,1.2,16.3,1.2z M16.2,22.8c-3.4,0-5.9-3-5.9-6.3
		c0-4.4,2.6-7.2,7-7.2c1.5,0,3.9,0.8,3.9,2.6c0,0.7-0.5,1.3-1.2,1.3c-2,0-0.7-3.1-3.5-3.1c-3.3,0-4.1,3.6-4.1,6.2s1.1,5.5,4.1,5.5
		c2.8,0,4.1-2,4.6-2.1l0.2,0.2C21.2,21.6,17.6,22.8,16.2,22.8z"/>
	<path class="st0" d="M43.1,29.3v-0.7l5.3-6.4c1.1-1.3,1.9-2.3,2.3-2.9c0.5-0.6,1-1.4,1.6-2.4s1-1.8,1.2-2.7
		c0.2-0.8,0.3-1.7,0.3-2.6c0-1.3-0.3-2.3-1-3.1s-1.6-1.1-2.7-1.1c-1.9,0-3.4,1.1-4.6,3.4H45l-0.5-3.5c0.7-0.6,1.4-1,1.9-1.4
		c0.5-0.3,1.3-0.7,2.3-1s2.1-0.5,3.3-0.5c2,0,3.6,0.6,4.8,1.8s1.8,2.7,1.8,4.5c0,1.4-0.5,2.9-1.5,4.5s-2.8,3.8-5.3,6.7l-3,3.5v0.2
		H54c1.4,0,2.4-0.1,3-0.3c0.7-0.2,1.3-0.6,1.8-1.1l0.6,0.2l-1.3,4.8L43.1,29.3L43.1,29.3z"/>
	<path class="st0" d="M78.2,26.2c-1.7,2.3-4,3.5-6.8,3.5s-5.1-1.2-6.8-3.5C62.9,23.9,62,20.8,62,17s0.9-6.9,2.6-9.2s4-3.5,6.8-3.5
		s5.1,1.2,6.8,3.5c1.7,2.3,2.6,5.4,2.6,9.2C80.8,20.9,79.9,23.9,78.2,26.2z M66.9,16.1c0,3.4,0.4,6.2,1.3,8.3s2.1,3.2,3.5,3.2
		c1.3,0,2.3-0.9,3-2.6s1.1-4.1,1.1-6.9c0-3.5-0.4-6.3-1.3-8.4s-2.1-3.1-3.6-3.1c-1.3,0-2.2,0.9-3,2.6C67.3,10.9,66.9,13.2,66.9,16.1
		z"/>
	<path class="st0" d="M82.4,29.3v-0.7l5.3-6.4c1.1-1.3,1.9-2.3,2.3-2.9c0.5-0.6,1-1.4,1.6-2.4s1-1.8,1.2-2.7
		c0.2-0.8,0.3-1.7,0.3-2.6c0-1.3-0.3-2.3-1-3.1s-1.6-1.1-2.7-1.1c-1.9,0-3.4,1.1-4.6,3.4h-0.5l-0.5-3.5c0.7-0.6,1.4-1,1.9-1.4
		c0.5-0.3,1.3-0.7,2.3-1s2.1-0.5,3.3-0.5c2,0,3.6,0.6,4.8,1.8c1.2,1.2,1.8,2.7,1.8,4.5c0,1.4-0.5,2.9-1.5,4.5s-2.8,3.8-5.3,6.7
		l-3,3.5v0.2h5.2c1.4,0,2.4-0.1,3-0.3c0.7-0.2,1.3-0.6,1.8-1.1l0.6,0.2l-1.3,4.8L82.4,29.3L82.4,29.3z"/>
	<path class="st0" d="M106.8,29.7c-1.9,0-3.6-0.3-5-1l-0.6-3.9h0.7c1.6,1.9,3.3,2.8,5.4,2.8c1.3,0,2.3-0.4,3.1-1.3
		c0.8-0.8,1.2-2,1.2-3.5c0-1.7-0.6-2.9-1.9-3.9c-1.3-0.9-3-1.4-5.2-1.4l-0.3-2c4.5-1.1,6.7-2.9,6.7-5.3c0-0.9-0.3-1.7-1-2.3
		c-0.6-0.6-1.4-0.9-2.4-0.9c-0.9,0-1.7,0.3-2.5,0.9s-1.4,1.5-1.9,2.5h-0.5l-0.5-3.7c2-1.5,4.2-2.3,6.6-2.3c2,0,3.5,0.5,4.7,1.5
		s1.8,2.2,1.8,3.8c0,2.4-1.8,4.5-5.3,6.1V16c2,0.3,3.6,1,4.7,2.3c1.1,1.2,1.7,2.7,1.7,4.4c0,2.2-0.9,4-2.6,5.2
		C111.8,29.1,109.6,29.7,106.8,29.7z"/>
</g>
</svg>
