<?xml version="1.0" encoding="utf-8"?>
<!-- Generator: Adobe Illustrator 27.9.0, SVG Export Plug-In . SVG Version: 6.00 Build 0)  -->
<svg version="1.1" id="레이어_1" xmlns="http://www.w3.org/2000/svg" xmlns:xlink="http://www.w3.org/1999/xlink" x="0px"
	 y="0px" viewBox="0 0 352 32" style="enable-background:new 0 0 352 32;" xml:space="preserve">
<style type="text/css">
	.st0{fill:#040000;}
</style>
<g>
	<path class="st0" d="M15.27,31.08c-4.23,0-7.75-1.32-10.56-3.97c-2.81-2.65-4.22-6.07-4.22-10.27c0-4.96,1.38-8.78,4.14-11.47
		c2.76-2.69,6.64-4.24,11.66-4.66c3.64,0.17,6.52,0.74,8.65,1.72l0.25,4.87h-0.63c-2.49-2.38-5.35-3.57-8.57-3.57
		c-2.83,0-5.1,1.02-6.8,3.07c-1.71,2.04-2.56,4.94-2.56,8.69c0,3.84,0.9,6.91,2.71,9.22c1.81,2.31,4.32,3.47,7.54,3.47h3.32V17.72
		l-5.08,0.42V15.2h11.3v0.55c-0.73,1.43-1.09,2.51-1.09,3.23v10.54C22.81,30.56,19.47,31.08,15.27,31.08z"/>
	<path class="st0" d="M31.23,30.11c0.87-1.34,1.3-2.31,1.3-2.9V4.7c0-0.59-0.43-1.55-1.3-2.9V1.26h17.3v3.36h-0.55
		c-1.51-0.62-2.6-0.92-3.28-0.92h-6.8v10.63l7.85-0.46v3.15l-7.85-0.42v11.72l6.3-0.21c2.02-0.08,3.63-0.52,4.83-1.3l0.59,0.25
		l-0.97,3.61H31.23V30.11z"/>
	<path class="st0" d="M53.36,30.11c0.76-1.26,1.13-2.23,1.13-2.9V4.28c0-0.56-0.43-1.39-1.3-2.48V1.26h5.12l15.12,20.79h0.25V4.7
		c0-0.67-0.38-1.64-1.13-2.9V1.26h5.38V1.8c-0.73,1.18-1.09,2.14-1.09,2.9v25.96h-3.95c-0.31-0.67-0.67-1.29-1.09-1.85L57.9,9.87
		h-0.25v17.35c0,0.67,0.38,1.64,1.13,2.9v0.55h-5.42V30.11z"/>
	<path class="st0" d="M88.39,30.11c0.87-1.34,1.3-2.31,1.3-2.9V3.69h-4.87c-0.53,0-1.5,0.32-2.9,0.97h-0.55v-3.4h21.92v3.4h-0.55
		c-1.4-0.64-2.37-0.97-2.9-0.97h-4.87v23.52c0,0.59,0.43,1.55,1.3,2.9v0.55h-7.9V30.11z"/>
	<path class="st0" d="M106.99,30.11c0.87-1.34,1.3-2.31,1.3-2.9V4.7c0-0.59-0.43-1.55-1.3-2.9V1.26h7.98V1.8
		c-0.87,1.34-1.3,2.31-1.3,2.9v23.6l6.05-0.21c1.23-0.03,2.19-0.14,2.88-0.34c0.69-0.2,1.35-0.52,2-0.97l0.59,0.25l-0.97,3.61
		h-17.22V30.11z"/>
	<path class="st0" d="M128.58,30.11c0.87-1.34,1.3-2.31,1.3-2.9V4.7c0-0.59-0.43-1.55-1.3-2.9V1.26h17.3v3.36h-0.55
		c-1.51-0.62-2.6-0.92-3.28-0.92h-6.8v10.63l7.85-0.46v3.15l-7.85-0.42v11.72l6.3-0.21c2.02-0.08,3.63-0.52,4.83-1.3l0.59,0.25
		l-0.97,3.61h-17.43V30.11z"/>
	<path class="st0" d="M161.3,30.11c0.76-1.26,1.13-2.23,1.13-2.9V4.7c0-0.59-0.43-1.55-1.3-2.9V1.26h6.09l9.41,22.51h0.25
		l9.83-22.51h6.13V1.8c-0.87,1.34-1.3,2.31-1.3,2.9v22.51c0,0.59,0.43,1.55,1.3,2.9v0.55h-7.81v-0.55c0.87-1.34,1.3-2.31,1.3-2.9
		V10.2h-0.25l-9.03,20.45h-2.35l-8.86-20.45h-0.25v17.01c0,0.67,0.38,1.64,1.13,2.9v0.55h-5.42V30.11z"/>
	<path class="st0" d="M211.57,31.46c-1.68,0-3.12-0.1-4.33-0.29c-3.14-1.01-5.58-2.85-7.33-5.52s-2.62-5.76-2.62-9.26
		c0-4.82,1.44-8.66,4.33-11.53s6.82-4.31,11.8-4.31c1.51,0,2.94,0.1,4.28,0.29c2.86,0.84,5.2,2.6,7.04,5.27s2.75,5.72,2.75,9.13
		c0,4.98-1.39,8.93-4.18,11.84C220.52,30,216.61,31.46,211.57,31.46z M203.3,15.29c0,3.81,0.89,7,2.67,9.58s4.26,3.86,7.46,3.86
		c2.77,0,4.81-1.02,6.11-3.07s1.95-4.68,1.95-7.9c0-2.63-0.33-5-0.99-7.12s-1.77-3.88-3.34-5.29s-3.5-2.12-5.8-2.12
		C205.99,3.23,203.3,7.25,203.3,15.29z"/>
	<path class="st0" d="M231.98,30.11c0.76-1.26,1.13-2.23,1.13-2.9V4.28c0-0.56-0.43-1.39-1.3-2.48V1.26h5.12l15.12,20.79h0.25V4.7
		c0-0.67-0.38-1.64-1.13-2.9V1.26h5.38V1.8c-0.73,1.18-1.09,2.14-1.09,2.9v25.96h-3.95c-0.31-0.67-0.67-1.29-1.09-1.85l-13.9-18.94
		h-0.25v17.35c0,0.67,0.38,1.64,1.13,2.9v0.55h-5.42V30.11z"/>
	<path class="st0" d="M268.1,31.12c-2.24,0-4.41-0.35-6.51-1.05l-0.63-5.33h0.71c2.04,2.58,4.34,3.86,6.89,3.86
		c1.37,0,2.49-0.4,3.36-1.2s1.3-1.84,1.3-3.13c0-0.95-0.42-1.93-1.26-2.94c-0.84-1.01-2.31-2.23-4.41-3.65
		c-2.18-1.48-3.79-2.88-4.83-4.18c-1.04-1.3-1.55-2.85-1.55-4.64c0-2.58,0.9-4.56,2.71-5.96c1.81-1.4,4.19-2.1,7.16-2.1
		c0.84,0,1.89,0.11,3.15,0.32s2.18,0.43,2.77,0.65l0.29,4.37h-0.67c-1.2-1.76-3.18-2.65-5.92-2.65c-1.37,0-2.49,0.34-3.34,1.03
		c-0.85,0.69-1.28,1.59-1.28,2.71c0,1.06,0.43,2.11,1.28,3.13c0.85,1.02,2.25,2.22,4.18,3.59c2.6,1.85,4.38,3.42,5.31,4.7
		c0.94,1.29,1.41,2.8,1.41,4.54c0,2.66-0.97,4.65-2.92,5.96C273.36,30.46,270.96,31.12,268.1,31.12z"/>
	<path class="st0" d="M287.89,30.11c0.87-1.34,1.3-2.31,1.3-2.9V3.69h-4.87c-0.53,0-1.5,0.32-2.9,0.97h-0.55v-3.4h21.92v3.4h-0.55
		c-1.4-0.64-2.37-0.97-2.9-0.97h-4.87v23.52c0,0.59,0.43,1.55,1.3,2.9v0.55h-7.9V30.11z"/>
	<path class="st0" d="M306.49,30.11c0.87-1.34,1.3-2.31,1.3-2.9V4.7c0-0.59-0.43-1.55-1.3-2.9V1.26h17.3v3.36h-0.55
		c-1.51-0.62-2.6-0.92-3.28-0.92h-6.8v10.63l7.85-0.46v3.15l-7.85-0.42v11.72l6.3-0.21c2.02-0.08,3.63-0.52,4.83-1.3l0.59,0.25
		l-0.97,3.61h-17.43V30.11z"/>
	<path class="st0" d="M349.42,27.97c0.5,0.92,1.2,1.64,2.1,2.14v0.55h-6.59c-0.08-0.5-0.36-1.2-0.84-2.1l-6.09-10.96l-2.9-0.08v9.7
		c0,0.59,0.43,1.55,1.3,2.9v0.55h-7.81v-0.55c0.87-1.34,1.3-2.31,1.3-2.9V4.7c0-0.59-0.43-1.55-1.3-2.9V1.26h11.59
		c2.24,0,4.23,0.79,5.96,2.37c1.74,1.58,2.6,3.59,2.6,6.03c0,1.68-0.43,3.11-1.3,4.28c-0.87,1.18-2.21,2.31-4.03,3.4L349.42,27.97z
		 M335.09,15.29l3.02-0.08c1.51-0.06,2.78-0.57,3.8-1.53c1.02-0.97,1.53-2.33,1.53-4.09c0-1.88-0.48-3.3-1.45-4.28
		c-0.97-0.98-2.29-1.5-3.97-1.55l-2.94-0.08V15.29z"/>
</g>
</svg>
