<svg width="20" height="20" viewBox="0 0 20 20" fill="none" xmlns="http://www.w3.org/2000/svg">
<g clip-path="url(#clip0_112_328)">
<path d="M10 2.01276e-06C7.66837 -0.00147669 5.40952 0.811847 3.61401 2.29934C1.8185 3.78684 0.599219 5.855 0.166984 8.14621C-0.265251 10.4374 0.116735 12.8077 1.24689 14.8471C2.37705 16.8865 4.18433 18.4669 6.35625 19.315C6.26875 18.5238 6.18875 17.3075 6.39 16.4438C6.5725 15.6625 7.5625 11.4725 7.5625 11.4725C7.5625 11.4725 7.26375 10.8738 7.26375 9.98875C7.26375 8.5975 8.07 7.56 9.07375 7.56C9.92625 7.56 10.3387 8.2 10.3387 8.96875C10.3387 9.82625 9.7925 11.1088 9.51 12.2975C9.275 13.2925 10.01 14.105 10.9912 14.105C12.7687 14.105 14.135 12.23 14.135 9.525C14.135 7.13125 12.4137 5.4575 9.9575 5.4575C7.1125 5.4575 5.4425 7.59125 5.4425 9.79625C5.4425 10.6563 5.77375 11.5775 6.18625 12.0788C6.22177 12.1165 6.24689 12.1629 6.25916 12.2133C6.27143 12.2637 6.27042 12.3164 6.25625 12.3663C6.18 12.6813 6.01125 13.3613 5.97875 13.5C5.935 13.6825 5.83375 13.7213 5.64375 13.6338C4.39375 13.0525 3.61375 11.2263 3.61375 9.75875C3.61375 6.605 5.90625 3.70875 10.2212 3.70875C13.69 3.70875 16.3862 6.18 16.3862 9.48375C16.3862 12.93 14.2125 15.7038 11.1975 15.7038C10.1837 15.7038 9.23125 15.1775 8.905 14.555L8.2825 16.9325C8.05625 17.8013 7.44625 18.89 7.03875 19.5538C8.41371 19.9789 9.86424 20.1022 11.2912 19.9153C12.7182 19.7284 14.0881 19.2357 15.3072 18.4709C16.5263 17.706 17.566 16.687 18.3552 15.4835C19.1444 14.28 19.6645 12.9203 19.88 11.4973C20.0955 10.0744 20.0013 8.62167 19.6038 7.23844C19.2064 5.85522 18.5151 4.57408 17.5771 3.48255C16.6391 2.39101 15.4765 1.5148 14.1689 0.91377C12.8612 0.31274 11.4392 0.00105288 10 2.01276e-06Z" fill="white"/>
</g>
<defs>
<clipPath id="clip0_112_328">
<rect width="20" height="20" fill="white"/>
</clipPath>
</defs>
</svg>
