<svg width="20" height="20" viewBox="0 0 20 20" fill="none" xmlns="http://www.w3.org/2000/svg">
<path d="M9.99905 1.5C15.5229 1.5 20 4.9174 20 9.13411C20 13.3499 15.5229 16.7673 10 16.7673C9.45007 16.7675 8.90069 16.7333 8.35524 16.6647L4.15714 19.3537C3.68 19.6008 3.51143 19.5738 3.70762 18.9685L4.55714 15.538C1.81429 14.1763 0 11.8165 0 9.13411C0 4.91833 4.47619 1.5 10 1.5H9.99905ZM15.6257 9.01752L17.0257 7.68937C17.1065 7.6072 17.1516 7.49754 17.1514 7.38348C17.1513 7.26942 17.1059 7.15987 17.025 7.0779C16.944 6.99593 16.8337 6.94794 16.7173 6.94404C16.6009 6.94014 16.4875 6.98064 16.401 7.057L14.5648 8.79741V7.35919C14.5648 7.24243 14.5174 7.13046 14.4331 7.0479C14.3488 6.96534 14.2345 6.91896 14.1152 6.91896C13.996 6.91896 13.8817 6.96534 13.7974 7.0479C13.7131 7.13046 13.6657 7.24243 13.6657 7.35919V9.74409C13.6489 9.81213 13.6489 9.88311 13.6657 9.95115V11.2933C13.6657 11.4101 13.7131 11.522 13.7974 11.6046C13.8817 11.6872 13.996 11.7335 14.1152 11.7335C14.2345 11.7335 14.3488 11.6872 14.4331 11.6046C14.5174 11.522 14.5648 11.4101 14.5648 11.2933V10.022L14.9714 9.63683L16.3314 11.533C16.3654 11.5803 16.4085 11.6207 16.4584 11.6517C16.5083 11.6827 16.5639 11.7038 16.6221 11.7137C16.6803 11.7237 16.7399 11.7223 16.7975 11.7097C16.8552 11.6971 16.9098 11.6735 16.9581 11.6403C17.0064 11.607 17.0476 11.5648 17.0793 11.5159C17.1109 11.4671 17.1325 11.4126 17.1426 11.3556C17.1528 11.2986 17.1514 11.2402 17.1385 11.1838C17.1257 11.1273 17.1016 11.0739 17.0676 11.0266L15.6257 9.01659V9.01752ZM12.8086 10.812H11.4181V7.37318C11.4128 7.26005 11.3631 7.15328 11.2795 7.07507C11.1959 6.99685 11.0847 6.95321 10.969 6.95321C10.8534 6.95321 10.7422 6.99685 10.6586 7.07507C10.575 7.15328 10.5253 7.26005 10.52 7.37318V11.2523C10.52 11.4948 10.72 11.6925 10.9686 11.6925H12.8086C12.9278 11.6925 13.0421 11.6461 13.1264 11.5636C13.2107 11.481 13.2581 11.369 13.2581 11.2523C13.2581 11.1355 13.2107 11.0235 13.1264 10.941C13.0421 10.8584 12.9278 10.812 12.8086 10.812ZM7.23048 9.79446L7.89333 8.20142L8.50095 9.79353L7.23048 9.79446ZM9.63333 10.2487L9.63524 10.2338C9.63501 10.1229 9.59178 10.0162 9.51429 9.9353L8.5181 7.32375C8.47633 7.1993 8.39679 7.09029 8.29009 7.01129C8.18338 6.93229 8.0546 6.88707 7.92095 6.88165C7.78632 6.88107 7.65471 6.92065 7.54361 6.99513C7.43252 7.0696 7.34721 7.17545 7.29905 7.29857L5.71619 11.0993C5.6711 11.2074 5.67171 11.3286 5.71788 11.4363C5.76405 11.5439 5.852 11.6292 5.96238 11.6734C6.07276 11.7175 6.19653 11.7169 6.30646 11.6717C6.4164 11.6265 6.50348 11.5404 6.54857 11.4323L6.86476 10.674H8.83619L9.12 11.4201C9.13936 11.4759 9.16995 11.5273 9.20997 11.5713C9.24998 11.6153 9.2986 11.651 9.35295 11.6762C9.4073 11.7015 9.46627 11.7158 9.52636 11.7183C9.58646 11.7208 9.64646 11.7115 9.70282 11.6909C9.75917 11.6703 9.81073 11.6388 9.85443 11.5983C9.89814 11.5579 9.93311 11.5092 9.95727 11.4553C9.98143 11.4013 9.99429 11.3432 9.99509 11.2843C9.99588 11.2254 9.9846 11.1669 9.9619 11.1124L9.63333 10.2487ZM6.46952 7.37785C6.46952 7.26125 6.42229 7.14942 6.3382 7.06688C6.2541 6.98435 6.14001 6.93786 6.02095 6.93761H2.93048C2.81126 6.93761 2.69692 6.98399 2.61261 7.06655C2.52831 7.14911 2.48095 7.26109 2.48095 7.37785C2.48095 7.4946 2.52831 7.60658 2.61261 7.68914C2.69692 7.7717 2.81126 7.81808 2.93048 7.81808H4.03524V11.3026C4.03524 11.4194 4.0826 11.5314 4.1669 11.6139C4.2512 11.6965 4.36554 11.7429 4.48476 11.7429C4.60398 11.7429 4.71832 11.6965 4.80262 11.6139C4.88693 11.5314 4.93429 11.4194 4.93429 11.3026V7.81808H6.02C6.13922 7.81808 6.25356 7.7717 6.33786 7.68914C6.42216 7.60658 6.46952 7.4946 6.46952 7.37785Z" fill="white"/>
</svg>
