<svg width="20" height="20" viewBox="0 0 20 20" fill="none" xmlns="http://www.w3.org/2000/svg">
<path d="M17.619 5.71427H7.14286M5.23809 5.71427H2.38095M17.619 15.2381H7.14286M5.23809 15.2381H2.38095M12.8571 10.4762H2.38095M17.619 10.4762H14.7619M6.19047 3.80951C6.44306 3.80951 6.6853 3.90985 6.86391 4.08846C7.04252 4.26706 7.14286 4.5093 7.14286 4.76189V6.66665C7.14286 6.91924 7.04252 7.16148 6.86391 7.34009C6.6853 7.51869 6.44306 7.61903 6.19047 7.61903C5.93789 7.61903 5.69565 7.51869 5.51704 7.34009C5.33843 7.16148 5.23809 6.91924 5.23809 6.66665V4.76189C5.23809 4.5093 5.33843 4.26706 5.51704 4.08846C5.69565 3.90985 5.93789 3.80951 6.19047 3.80951ZM6.19047 13.3333C6.44306 13.3333 6.6853 13.4337 6.86391 13.6123C7.04252 13.7909 7.14286 14.0331 7.14286 14.2857V16.1905C7.14286 16.443 7.04252 16.6853 6.86391 16.8639C6.6853 17.0425 6.44306 17.1428 6.19047 17.1428C5.93789 17.1428 5.69565 17.0425 5.51704 16.8639C5.33843 16.6853 5.23809 16.443 5.23809 16.1905V14.2857C5.23809 14.0331 5.33843 13.7909 5.51704 13.6123C5.69565 13.4337 5.93789 13.3333 6.19047 13.3333ZM13.8095 8.57141C14.0621 8.57141 14.3044 8.67175 14.483 8.85036C14.6616 9.02897 14.7619 9.27121 14.7619 9.5238V11.4286C14.7619 11.6811 14.6616 11.9234 14.483 12.102C14.3044 12.2806 14.0621 12.3809 13.8095 12.3809C13.5569 12.3809 13.3147 12.2806 13.1361 12.102C12.9575 11.9234 12.8571 11.6811 12.8571 11.4286V9.5238C12.8571 9.27121 12.9575 9.02897 13.1361 8.85036C13.3147 8.67175 13.5569 8.57141 13.8095 8.57141Z" stroke="#333333" stroke-width="1.42857" stroke-linecap="round" stroke-linejoin="round"/>
</svg>
