<svg width="20" height="20" viewBox="0 0 20 20" fill="none" xmlns="http://www.w3.org/2000/svg">
<path d="M13.97 18.0363C10.6387 18.0363 7.9375 15.7863 7.9375 13.0138C7.9375 10.2388 10.6363 7.98877 13.9675 7.98877C17.2987 7.98877 20 10.2388 20 13.0138C20 14.5263 19.1875 15.89 17.9175 16.8088C17.8468 16.8589 17.7941 16.9305 17.7671 17.0128C17.7401 17.0952 17.7403 17.184 17.7675 17.2663L18.04 18.2788C18.0568 18.3262 18.069 18.3752 18.0763 18.425C18.075 18.4783 18.0532 18.5291 18.0155 18.5668C17.9778 18.6045 17.9271 18.6263 17.8737 18.6275C17.8327 18.6259 17.7929 18.613 17.7587 18.59L16.4375 17.8275C16.3407 17.7694 16.2304 17.7375 16.1175 17.735C16.0574 17.7353 15.9976 17.7442 15.94 17.7613C15.2995 17.9451 14.6363 18.0377 13.97 18.0363ZM11.33 11.9275C11.4061 12.0443 11.511 12.1394 11.6346 12.2036C11.7582 12.2679 11.8964 12.2991 12.0356 12.2943C12.1749 12.2895 12.3105 12.2488 12.4294 12.1761C12.5483 12.1035 12.6464 12.0013 12.7142 11.8796C12.782 11.7579 12.8172 11.6207 12.8164 11.4814C12.8156 11.342 12.7788 11.2053 12.7096 11.0844C12.6404 10.9634 12.5411 10.8624 12.4214 10.7911C12.3016 10.7199 12.1655 10.6807 12.0263 10.6775C11.9201 10.6774 11.8149 10.6982 11.7167 10.7388C11.6186 10.7794 11.5295 10.839 11.4545 10.9141C11.3794 10.9893 11.32 11.0785 11.2795 11.1767C11.2391 11.2749 11.2184 11.3801 11.2188 11.4863C11.2108 11.6413 11.2488 11.7952 11.33 11.9275ZM15.37 11.9288C15.4465 12.0455 15.5518 12.1404 15.6759 12.2042C15.7999 12.2681 15.9384 12.2987 16.0778 12.2931C16.2172 12.2875 16.3528 12.2459 16.4713 12.1723C16.5899 12.0987 16.6873 11.9957 16.7542 11.8732C16.821 11.7508 16.855 11.6131 16.8528 11.4736C16.8507 11.3341 16.8124 11.1975 16.7417 11.0772C16.671 10.9569 16.5704 10.857 16.4496 10.7872C16.3288 10.7173 16.192 10.68 16.0525 10.6788C15.8391 10.6791 15.6345 10.764 15.4836 10.9149C15.3327 11.0658 15.2478 11.2704 15.2475 11.4838C15.2427 11.641 15.2854 11.7961 15.37 11.9288Z" fill="white"/>
<path d="M0 8.5325C0 10.3513 0.97625 11.9888 2.50125 13.1025C2.58636 13.1624 2.64978 13.2482 2.68201 13.3471C2.71424 13.446 2.71353 13.5528 2.68 13.6513L2.47875 14.4013L2.35375 14.8675C2.33205 14.9236 2.31858 14.9825 2.31375 15.0425C2.31358 15.0742 2.31971 15.1057 2.33178 15.135C2.34384 15.1644 2.36161 15.191 2.38404 15.2135C2.40648 15.2359 2.43314 15.2537 2.46248 15.2657C2.49183 15.2778 2.52327 15.2839 2.555 15.2838C2.60375 15.2838 2.65125 15.2713 2.69375 15.2475L4.27875 14.3313C4.39528 14.2616 4.52801 14.2237 4.66375 14.2213C4.73625 14.2213 4.80875 14.2325 4.8775 14.2525C5.53901 14.4423 6.22104 14.5514 6.90875 14.5775C6.761 14.0694 6.6865 13.5429 6.6875 13.0138C6.6875 9.34375 10.1688 6.73875 13.9675 6.73875C14.03 6.73875 14.0925 6.73875 14.155 6.74125C13.2338 4.28625 10.49 2.5 7.245 2.5C3.245 2.5 0 5.2 0 8.5325ZM5.79 6.58875C5.79 6.84402 5.68859 7.08884 5.50809 7.26934C5.32759 7.44984 5.08277 7.55125 4.8275 7.55125C4.57223 7.55125 4.32741 7.44984 4.14691 7.26934C3.96641 7.08884 3.865 6.84402 3.865 6.58875C3.865 6.33348 3.96641 6.08866 4.14691 5.90816C4.32741 5.72766 4.57223 5.62625 4.8275 5.62625C5.08277 5.62625 5.32759 5.72766 5.50809 5.90816C5.68859 6.08866 5.79 6.33348 5.79 6.58875ZM10.6338 6.58875C10.6338 6.84402 10.5323 7.08884 10.3518 7.26934C10.1713 7.44984 9.92652 7.55125 9.67125 7.55125C9.41598 7.55125 9.17116 7.44984 8.99066 7.26934C8.81016 7.08884 8.70875 6.84402 8.70875 6.58875C8.70875 6.33348 8.81016 6.08866 8.99066 5.90816C9.17116 5.72766 9.41598 5.62625 9.67125 5.62625C9.92652 5.62625 10.1713 5.72766 10.3518 5.90816C10.5323 6.08866 10.6338 6.33348 10.6338 6.58875Z" fill="white"/>
</svg>
