<svg width="20" height="20" viewBox="0 0 20 20" fill="none" xmlns="http://www.w3.org/2000/svg">
<path d="M8.415 16.9369C5.10125 17.2625 2.23688 15.765 2.02187 13.5875C1.80687 11.4131 4.32 9.38187 7.63688 9.05312C10.9537 8.72437 13.815 10.2219 14.03 12.3994C14.2481 14.5675 11.7319 16.6081 8.41813 16.9337L8.415 16.9369ZM7.5425 14.3487C7.22 14.8631 6.53688 15.0844 6.01875 14.85C5.5075 14.6187 5.35813 14.0231 5.68 13.5219C5.99563 13.0269 6.66 12.8056 7.17438 13.0237C7.69187 13.2419 7.85812 13.8312 7.5425 14.3487ZM8.6 12.995C8.4825 13.1906 8.22563 13.2881 8.02688 13.2031C7.82813 13.1281 7.76312 12.9037 7.87687 12.715C7.99437 12.5262 8.24125 12.4287 8.43687 12.5162C8.63562 12.5912 8.70063 12.8156 8.58687 13.0175L8.6 12.995ZM8.74687 10.7256C7.16813 10.3156 5.3875 11.1031 4.70062 12.4931C4.00375 13.9125 4.67812 15.4844 6.26937 15.9987C7.92313 16.5325 9.86938 15.7156 10.5469 14.1856C11.2144 12.6912 10.3806 11.1487 8.74687 10.7256ZM15.0487 9.70687C14.7625 9.61874 14.5737 9.55687 14.71 9.19562C15.0225 8.38187 15.0619 7.69187 14.71 7.19062C14.0587 6.26624 12.2819 6.31499 10.2406 7.16812C10.2406 7.16812 9.6025 7.44187 9.76562 6.93999C10.0781 5.92749 10.0294 5.08749 9.54125 4.59937C8.425 3.48624 5.48187 4.63874 2.96875 7.16749C1.09062 9.05874 0 11.0606 0 12.7894C0 16.1062 4.24813 18.1181 8.405 18.1181C13.8512 18.1181 17.4775 14.9506 17.4775 12.4344C17.4775 10.9175 16.1881 10.0581 15.0494 9.7L15.0487 9.70687ZM16.6406 5.46562C16.3365 5.12623 15.9482 4.87317 15.5149 4.73204C15.0816 4.5909 14.6188 4.5667 14.1731 4.66187C14.088 4.67878 14.0072 4.71239 13.9352 4.76075C13.8632 4.80912 13.8015 4.87128 13.7536 4.94364C13.7058 5.016 13.6728 5.09712 13.6565 5.18232C13.6402 5.26751 13.641 5.3551 13.6588 5.43999C13.7338 5.78812 14.085 6.01624 14.4369 5.94124C14.8631 5.85312 15.3256 5.97687 15.6381 6.32874C15.9506 6.68062 16.0256 7.14249 15.9019 7.55624C15.8753 7.63832 15.8651 7.72483 15.872 7.81082C15.8789 7.89682 15.9027 7.98062 15.942 8.05742C15.9813 8.13422 16.0353 8.20252 16.1011 8.2584C16.1668 8.31429 16.2429 8.35667 16.325 8.38312C16.6637 8.48374 17.0413 8.29499 17.1519 7.95687C17.2921 7.52521 17.3163 7.06427 17.222 6.62031C17.1278 6.17635 16.9185 5.76498 16.615 5.42749L16.6406 5.46562ZM18.6556 3.63624C17.3406 2.17124 15.4006 1.61812 13.61 1.99562C13.1969 2.07999 12.9331 2.48374 13.0206 2.89749C13.1081 3.31124 13.5087 3.57437 13.9225 3.48687C14.568 3.34628 15.2391 3.37884 15.8679 3.58124C16.4967 3.78364 17.0609 4.14868 17.5031 4.63937C18.4275 5.67749 18.6944 7.09062 18.2906 8.31749C18.2585 8.41279 18.2457 8.51352 18.2529 8.61382C18.2601 8.71411 18.2873 8.81197 18.3327 8.90168C18.3781 8.99139 18.441 9.07115 18.5176 9.13632C18.5941 9.20148 18.6829 9.25075 18.7787 9.28124C19.1794 9.42124 19.6056 9.19687 19.7425 8.79312C20.0282 7.90547 20.0758 6.95833 19.8805 6.04651C19.6851 5.13469 19.2537 4.29017 18.6294 3.59749L18.6556 3.63624Z" fill="white"/>
</svg>
