<svg width="10" height="10" viewBox="0 0 10 10" fill="none" xmlns="http://www.w3.org/2000/svg">
<path d="M8.60313 5.16564L5.79063 7.97814C5.7462 8.01954 5.68743 8.04208 5.62671 8.04101C5.56599 8.03993 5.50806 8.01534 5.46512 7.97239C5.42218 7.92945 5.39758 7.87152 5.39651 7.8108C5.39544 7.75008 5.41797 7.69132 5.45937 7.64689L7.87148 5.23439H1.5625C1.50034 5.23439 1.44073 5.2097 1.39677 5.16574C1.35282 5.12179 1.32813 5.06217 1.32812 5.00001C1.32812 4.93785 1.35282 4.87824 1.39677 4.83429C1.44073 4.79033 1.50034 4.76564 1.5625 4.76564H7.87148L5.45937 2.35314C5.41797 2.30871 5.39544 2.24994 5.39651 2.18922C5.39758 2.12851 5.42218 2.07057 5.46512 2.02763C5.50806 1.98469 5.56599 1.96009 5.62671 1.95902C5.68743 1.95795 5.7462 1.98049 5.79063 2.02189L8.60313 4.83439C8.64702 4.87833 8.67167 4.9379 8.67167 5.00001C8.67167 5.06212 8.64702 5.12169 8.60313 5.16564Z" fill="#666666"/>
</svg>
