<svg width="20" height="21" viewBox="0 0 20 21" fill="none" xmlns="http://www.w3.org/2000/svg">
<g clip-path="url(#clip0_6_50)">
<path d="M10 20.5C8.6237 20.5 7.32741 20.237 6.11111 19.7111C4.89481 19.1852 3.83556 18.4704 2.93333 17.5667C2.02963 16.6652 1.31481 15.6059 0.788889 14.3889C0.262963 13.1726 0 11.8763 0 10.5C0 9.12 0.262963 7.82259 0.788889 6.60778C1.31556 5.39296 2.03037 4.33444 2.93333 3.43222C3.83481 2.53 4.89407 1.81593 6.11111 1.29C7.32741 0.763333 8.6237 0.5 10 0.5C11.38 0.5 12.6774 0.762963 13.8922 1.28889C15.107 1.81556 16.1656 2.53037 17.0678 3.43333C17.97 4.33556 18.6841 5.3937 19.21 6.60778C19.7367 7.82259 20 9.12 20 10.5C20 11.8763 19.737 13.1726 19.2111 14.3889C18.6852 15.6052 17.9704 16.6644 17.0667 17.5667C16.1644 18.4696 15.1063 19.1844 13.8922 19.7111C12.6774 20.237 11.38 20.5 10 20.5ZM10 19.3978C10.6519 18.56 11.1896 17.7374 11.6133 16.93C12.0363 16.1226 12.3804 15.2189 12.6456 14.2189H7.35445C7.64778 15.2752 7.99889 16.207 8.40778 17.0144C8.81667 17.8219 9.34741 18.6163 10 19.3978ZM8.58556 19.2311C8.06704 18.62 7.5937 17.8644 7.16556 16.9644C6.73741 16.0652 6.41889 15.1496 6.21 14.2178H1.94778C2.58481 15.6 3.48741 16.7333 4.65556 17.6178C5.82444 18.5022 7.13407 19.04 8.58444 19.2311H8.58556ZM11.4144 19.2311C12.8648 19.04 14.1744 18.5022 15.3433 17.6178C16.5122 16.7333 17.4148 15.6 18.0511 14.2178H13.7911C13.5096 15.1637 13.1552 16.0867 12.7278 16.9867C12.2996 17.8859 11.8619 18.6341 11.4144 19.2311ZM1.49556 13.1067H5.97889C5.89444 12.6511 5.83519 12.207 5.80111 11.7744C5.76556 11.3419 5.74778 10.917 5.74778 10.5C5.74778 10.083 5.76519 9.65815 5.8 9.22556C5.83482 8.79296 5.89407 8.34852 5.97778 7.89222H1.49667C1.37593 8.27741 1.28148 8.69704 1.21333 9.15111C1.14519 9.60519 1.11111 10.0548 1.11111 10.5C1.11111 10.9459 1.14481 11.3956 1.21222 11.8489C1.28037 12.303 1.37482 12.7222 1.49556 13.1067ZM7.09 13.1067H12.91C12.9944 12.6511 13.0537 12.2141 13.0878 11.7956C13.1233 11.3778 13.1411 10.9459 13.1411 10.5C13.1411 10.0541 13.1237 9.62222 13.0889 9.20444C13.0541 8.78593 12.9948 8.34889 12.9111 7.89333H7.08889C7.00519 8.34889 6.94593 8.78593 6.91111 9.20444C6.8763 9.62222 6.85889 10.0541 6.85889 10.5C6.85889 10.9459 6.8763 11.3778 6.91111 11.7956C6.94593 12.2141 7.0063 12.6511 7.09 13.1067ZM14.0211 13.1067H18.5044C18.6252 12.7215 18.7196 12.3022 18.7878 11.8489C18.8559 11.3956 18.8896 10.9459 18.8889 10.5C18.8889 10.0541 18.8552 9.60445 18.7878 9.15111C18.7196 8.69704 18.6252 8.27778 18.5044 7.89333H14.0211C14.1056 8.34889 14.1648 8.79296 14.1989 9.22556C14.2344 9.65815 14.2522 10.083 14.2522 10.5C14.2522 10.917 14.2348 11.3419 14.2 11.7744C14.1652 12.207 14.1059 12.6515 14.0222 13.1078L14.0211 13.1067ZM13.7911 6.78222H18.0511C17.4 5.37185 16.5081 4.23852 15.3756 3.38222C14.2422 2.52593 12.9219 1.98148 11.4144 1.74889C11.933 2.43037 12.3993 3.21037 12.8133 4.08889C13.2267 4.96667 13.5526 5.86445 13.7911 6.78222ZM7.35445 6.78222H12.6456C12.3522 5.73926 11.9904 4.7963 11.56 3.95333C11.1304 3.10963 10.6104 2.32593 10 1.60222C9.39037 2.32593 8.87037 3.10963 8.44 3.95333C8.01037 4.7963 7.64852 5.73926 7.35445 6.78222ZM1.94889 6.78222H6.20889C6.44741 5.86445 6.77333 4.96667 7.18667 4.08889C7.60074 3.21037 8.06704 2.43 8.58556 1.74778C7.06407 1.98111 5.74037 2.52926 4.61444 3.39222C3.48852 4.25593 2.59963 5.38556 1.94778 6.78111L1.94889 6.78222Z" fill="#222222"/>
</g>
<defs>
<clipPath id="clip0_6_50">
<rect width="20" height="20" fill="white" transform="translate(0 0.5)"/>
</clipPath>
</defs>
</svg>
