<svg width="18" height="18" viewBox="0 0 18 18" fill="none" xmlns="http://www.w3.org/2000/svg">
<path d="M13.0909 1C11.3727 1 9.87873 1.80585 9 3.15631C8.12127 1.80585 6.62727 1 4.90909 1C3.60758 1.00158 2.35982 1.54 1.43951 2.49717C0.519209 3.45433 0.00151577 4.75208 0 6.10571C0 8.59049 1.48909 11.1765 4.42636 13.7907C5.77231 14.9835 7.22619 16.0379 8.76764 16.9392C8.83907 16.9791 8.9189 17 9 17C9.0811 17 9.16093 16.9791 9.23236 16.9392C10.7738 16.0379 12.2277 14.9835 13.5736 13.7907C16.5109 11.1765 18 8.59049 18 6.10571C17.9985 4.75208 17.4808 3.45433 16.5605 2.49717C15.6402 1.54 14.3924 1.00158 13.0909 1ZM9 15.901C7.65736 15.0952 0.981818 10.8472 0.981818 6.10571C0.982901 5.02276 1.39701 3.98449 2.13329 3.21873C2.86956 2.45297 3.86785 2.02227 4.90909 2.02114C6.56836 2.02114 7.96173 2.94272 8.54591 4.42678C8.58289 4.52043 8.64581 4.60052 8.72667 4.65689C8.80752 4.71326 8.90266 4.74335 9 4.74335C9.09734 4.74335 9.19248 4.71326 9.27333 4.65689C9.35419 4.60052 9.41711 4.52043 9.45409 4.42678C10.0383 2.94272 11.4316 2.02114 13.0909 2.02114C14.1322 2.02227 15.1304 2.45297 15.8667 3.21873C16.603 3.98449 17.0171 5.02276 17.0182 6.10571C17.0182 10.8472 10.3426 15.0952 9 15.901Z" fill="#333333"/>
</svg>
