<svg width="20" height="20" viewBox="0 0 20 20" fill="none" xmlns="http://www.w3.org/2000/svg">
<path d="M9 2.18269C10.333 2.18155 11.6364 2.55108 12.7454 3.24454C13.8543 3.938 14.719 4.92423 15.2299 6.07847C15.7409 7.23271 15.8752 8.50309 15.6159 9.7289C15.3566 10.9547 14.7153 12.0809 13.7731 12.965C12.831 13.849 11.6303 14.4513 10.323 14.6955C9.01573 14.9397 7.66053 14.8149 6.42888 14.337C5.19723 13.859 4.14446 13.0493 3.40376 12.0103C2.66306 10.9713 2.2677 9.74969 2.2677 8.5C2.27578 6.82788 2.98747 5.22631 4.2481 4.04339C5.50873 2.86047 7.21641 2.1918 9 2.18269ZM9 1C7.41775 1 5.87103 1.43987 4.55544 2.26398C3.23985 3.08809 2.21447 4.25943 1.60897 5.62987C1.00347 7.00032 0.84504 8.50832 1.15372 9.96318C1.4624 11.418 2.22433 12.7544 3.34315 13.8033C4.46197 14.8522 5.88743 15.5665 7.43928 15.8559C8.99113 16.1453 10.5997 15.9967 12.0615 15.4291C13.5233 14.8614 14.7727 13.9001 15.6518 12.6668C16.5308 11.4334 17 9.98336 17 8.5C17 6.51088 16.1571 4.60322 14.6569 3.1967C13.1566 1.79018 11.1217 1 9 1Z" fill="#222222"/>
<path d="M19.84 19.0655L15.7819 15L15 15.7726L19.0581 19.8381C19.1091 19.8891 19.1697 19.9297 19.2364 19.9575C19.3032 19.9853 19.3748 19.9997 19.4471 20C19.5195 20.0003 19.5912 19.9863 19.6581 19.959C19.725 19.9317 19.7859 19.8915 19.8373 19.8408C19.8886 19.7901 19.9294 19.7298 19.9573 19.6634C19.9852 19.5969 19.9997 19.5257 20 19.4537C20.0003 19.3817 19.9863 19.3104 19.9588 19.2438C19.9314 19.1772 19.891 19.1166 19.84 19.0655Z" fill="#222222"/>
</svg>
