<svg width="20" height="20" viewBox="0 0 20 20" fill="none" xmlns="http://www.w3.org/2000/svg">
<path d="M14 6.22848V4.38185C14 3.80641 13.8965 3.23662 13.6955 2.70499C13.4945 2.17336 13.1999 1.69031 12.8284 1.28341C12.457 0.876521 12.016 0.553756 11.5307 0.333548C11.0454 0.11334 10.5253 0 10 0C9.47471 0 8.95457 0.11334 8.46927 0.333548C7.98396 0.553756 7.54301 0.876521 7.17157 1.28341C6.80014 1.69031 6.5055 2.17336 6.30448 2.70499C6.10346 3.23662 6 3.80641 6 4.38185V8.76369C6 8.92971 6.0602 9.08893 6.16737 9.20633C6.27453 9.32372 6.41988 9.38967 6.57143 9.38967C6.72298 9.38967 6.86833 9.32372 6.97549 9.20633C7.08265 9.08893 7.14286 8.92971 7.14286 8.76369V7.48044H11.7143V6.22848H7.14286V4.38185C7.14286 3.55175 7.44388 2.75565 7.9797 2.16868C8.51551 1.58171 9.24224 1.25196 10 1.25196C10.7578 1.25196 11.4845 1.58171 12.0203 2.16868C12.5561 2.75565 12.8571 3.55175 12.8571 4.38185V8.73239C12.8571 8.89841 12.9173 9.05763 13.0245 9.17503C13.1317 9.29242 13.277 9.35837 13.4286 9.35837C13.5801 9.35837 13.7255 9.29242 13.8326 9.17503C13.9398 9.05763 14 8.89841 14 8.73239V7.48044H16.8571V18.748H3.14286V7.48044H4.85714V6.22848H2V18.8044C2 19.1215 2.11499 19.4256 2.31967 19.6498C2.52435 19.874 2.80196 20 3.09143 20H16.9086C17.198 20 17.4756 19.874 17.6803 19.6498C17.885 19.4256 18 19.1215 18 18.8044V6.22848H14Z" fill="#222222"/>
</svg>
